<?xml version="1.0" encoding="iso-8859-1"?>
<!-- Uploaded to: SVG Repo, www.svgrepo.com, Generator: SVG Repo Mixer Tools -->
<!DOCTYPE svg PUBLIC "-//W3C//DTD SVG 1.1//EN" "http://www.w3.org/Graphics/SVG/1.1/DTD/svg11.dtd">
<svg fill="#000000" height="800px" width="800px" version="1.1" id="Capa_1" xmlns="http://www.w3.org/2000/svg" xmlns:xlink="http://www.w3.org/1999/xlink" 
	 viewBox="0 0 474.826 474.826" xml:space="preserve">
<path d="M473.95,254.908c-1.302-2.45-3.849-3.981-6.623-3.981h-72.364l-38.787-59.278c-0.001-0.002-0.002-0.003-0.003-0.005
	l-7.789-11.904c-10.908-16.672-29.315-26.625-49.239-26.625h-6.002l-23.527-47.055c-1.851-3.704-6.355-5.205-10.063-3.354
	c-3.704,1.853-5.206,6.357-3.354,10.063l20.172,40.346h-51.865c-1.989,0-3.897,0.79-5.303,2.196L208.6,165.914h-57.787
	L140.21,155.31c-1.406-1.406-3.314-2.196-5.303-2.196h-19.745l-11.38-45.52c-0.834-3.339-3.834-5.681-7.276-5.681h-38.4
	c-4.142,0-7.5,3.357-7.5,7.5v43.7H35.926c-8.234,0-15.438,5.849-17.127,13.906L6.15,227.314c-0.004,0.021-0.009,0.041-0.013,0.062
	l-5.55,26.458c-0.585,2.785-0.733,5.633-0.441,8.462l9.372,91.087c0.394,3.825,3.616,6.732,7.461,6.732l8.028-0.001v5.3
	c0,4.143,3.358,7.5,7.5,7.5h371.2c4.143,0,7.5-3.357,7.5-7.5c0-6.872,2.033-13.515,5.88-19.209l56.455-83.58
	C475.094,260.326,475.251,257.357,473.95,254.908z M404.657,337.808c-4.113,6.089-6.784,12.933-7.882,20.105H40.007v-5.3
	c0-1.989-0.79-3.896-2.197-5.304c-1.407-1.406-3.314-2.196-5.304-2.196l-8.76,0.001l-4.197-40.789h384.157
	c4.143,0,7.5-3.357,7.5-7.5s-3.357-7.5-7.5-7.5H18.006l-2.408-23.399h292.208c4.143,0,7.5-3.357,7.5-7.5c0-4.143-3.357-7.5-7.5-7.5
	H16.523l3.056-14.567h102.528c4.142,0,7.5-3.357,7.5-7.5s-3.358-7.5-7.5-7.5H22.726l3.78-18.021h95.6c4.142,0,7.5-3.357,7.5-7.5
	s-3.358-7.5-7.5-7.5H29.653l3.826-18.239c0.241-1.15,1.271-1.985,2.447-1.985h47.78c4.142,0,7.5-3.357,7.5-7.5s-3.358-7.5-7.5-7.5
	h-18.1v-36.2h25.044l11.38,45.52c0.008,0.03,0.022,0.056,0.03,0.086c0.099,0.378,0.222,0.747,0.377,1.099
	c0.017,0.039,0.038,0.076,0.055,0.115c0.152,0.331,0.325,0.649,0.521,0.952c0.021,0.032,0.038,0.066,0.059,0.098
	c0.199,0.298,0.425,0.575,0.664,0.841c0.052,0.057,0.102,0.115,0.155,0.171c0.242,0.253,0.5,0.488,0.775,0.704
	c0.051,0.04,0.103,0.077,0.155,0.116c0.589,0.441,1.244,0.796,1.949,1.05c0.054,0.019,0.106,0.041,0.16,0.059
	c0.335,0.112,0.68,0.2,1.034,0.264c0.078,0.014,0.156,0.024,0.235,0.036c0.339,0.05,0.683,0.083,1.034,0.087
	c0.023,0,0.044,0.006,0.067,0.006c0.011,0,0.021-0.002,0.032-0.002H131.8l10.603,10.603c1.406,1.407,3.314,2.197,5.303,2.197h64
	c1.989,0,3.897-0.79,5.303-2.196l10.603-10.604h60.871c0.01,0,0.019,0.002,0.028,0.002c0.011,0,0.023-0.002,0.034-0.002h10.598
	c14.845,0,28.56,7.416,36.688,19.838l0.253,0.387h-34.777c-4.143,0-7.5,3.357-7.5,7.5s3.357,7.5,7.5,7.5h44.592l11.791,18.021
	h-56.383c-4.143,0-7.5,3.357-7.5,7.5s3.357,7.5,7.5,7.5h66.198l9.531,14.567h-37.33c-4.143,0-7.5,3.357-7.5,7.5
	c0,4.143,3.357,7.5,7.5,7.5h51.191c0.005,0,0.011,0.001,0.016,0.001c0.005,0,0.009-0.001,0.014-0.001h62.283L404.657,337.808z
	 M270.407,195.839c0,4.143-3.357,7.5-7.5,7.5h-102.4c-4.142,0-7.5-3.357-7.5-7.5s3.358-7.5,7.5-7.5h102.4
	C267.049,188.339,270.407,191.696,270.407,195.839z M270.407,228.859c0,4.143-3.357,7.5-7.5,7.5h-102.4c-4.142,0-7.5-3.357-7.5-7.5
	s3.358-7.5,7.5-7.5h102.4C267.049,221.359,270.407,224.716,270.407,228.859z"/>
</svg>