<?xml version="1.0" encoding="iso-8859-1"?>
<!-- Uploaded to: SVG Repo, www.svgrepo.com, Generator: SVG Repo Mixer Tools -->
<!DOCTYPE svg PUBLIC "-//W3C//DTD SVG 1.1//EN" "http://www.w3.org/Graphics/SVG/1.1/DTD/svg11.dtd">
<svg fill="#000000" height="800px" width="800px" version="1.1" id="Capa_1" xmlns="http://www.w3.org/2000/svg" xmlns:xlink="http://www.w3.org/1999/xlink" 
	 viewBox="0 0 200.297 200.297" xml:space="preserve">
<path d="M153.781,186.96c-23.333,0-43.167-18.574-46.134-43.206c-0.257-2.14,0.41-4.286,1.832-5.889
	c1.402-1.581,3.418-2.488,5.532-2.488h0.242c3.727,0,6.897,2.837,7.374,6.599c2.109,16.618,15.502,29.15,31.155,29.15
	c17.338,0,31.444-15.14,31.444-33.749V15.336c0-1.104,0.896-2,2-2h11.071c1.104,0,2,0.896,2,2v122.041
	C200.297,164.717,179.43,186.96,153.781,186.96z M115.01,139.377c-0.984,0-1.886,0.405-2.539,1.142
	c-0.663,0.748-0.974,1.753-0.853,2.757c2.726,22.624,20.852,39.685,42.163,39.685c23.443,0,42.516-20.448,42.516-45.583V17.336
	h-7.071v120.041c0,20.814-15.9,37.749-35.444,37.749c-17.661,0-32.761-14.035-35.123-32.646c-0.229-1.798-1.661-3.103-3.406-3.103
	H115.01z M88.475,122.63c-2.206,0-4.416-0.729-6.29-2.195L67.31,108.796c-2.029,1.343-4.404,2.079-6.84,2.079H25.64
	c-10.742,0-19.482-9.145-19.482-20.385v-3.157C2.728,87.133,0,84.28,0,80.8V66.223c0-3.479,2.728-6.333,6.158-6.533v-4.209
	c0-11.24,8.74-20.385,19.482-20.385h126.439c10.742,0,19.482,9.145,19.482,20.385v4.209c3.429,0.2,6.158,3.055,6.158,6.533V80.8
	c0,3.479-2.729,6.333-6.158,6.533v3.157c0,11.24-8.74,20.385-19.482,20.385h-34.83c-2.914,0-5.74-1.053-7.99-2.937l-14.105,12.174
	C93.213,121.788,90.846,122.63,88.475,122.63z M70.311,106.066l14.339,11.219c2.365,1.851,5.61,1.769,7.891-0.2l13.955-12.044
	L93.491,90.419c-1.175-1.321-2.863-2.079-4.632-2.079s-3.457,0.758-4.632,2.079L70.311,106.066z M88.859,84.34
	c2.91,0,5.688,1.247,7.621,3.421l14.41,16.201c1.646,1.852,3.964,2.913,6.359,2.913h34.83c8.537,0,15.482-7.351,15.482-16.385
	v-5.146c0-1.104,0.896-2,2-2h1.613c1.403,0,2.545-1.142,2.545-2.545V66.223c0-1.403-1.142-2.545-2.545-2.545h-1.613
	c-1.104,0-2-0.896-2-2v-6.197c0-9.034-6.945-16.385-15.482-16.385H25.64c-8.537,0-15.482,7.351-15.482,16.385v6.197
	c0,1.104-0.896,2-2,2H6.544C5.142,63.678,4,64.82,4,66.223V80.8c0,1.403,1.142,2.545,2.544,2.545h1.613c1.104,0,2,0.896,2,2v5.146
	c0,9.034,6.945,16.385,15.482,16.385h34.83c1.846,0,3.647-0.631,5.13-1.77c0.027-0.04,0.056-0.08,0.087-0.119
	c0.196-0.251,0.441-0.442,0.71-0.571c0.148-0.146,0.293-0.297,0.433-0.453l14.409-16.201C83.172,85.587,85.95,84.34,88.859,84.34z
	 M152.463,102.149h-30.39c-2.943,0-5.814-1.305-7.877-3.579L94.938,77.322c-2.042-2.253-3.167-5.235-3.167-8.398V56.319
	c0-6.604,4.954-11.978,11.043-11.978h49.648c6.089,0,11.043,5.373,11.043,11.978v33.853
	C163.507,96.776,158.553,102.149,152.463,102.149z M97.902,74.636l19.258,21.247c1.325,1.461,3.069,2.266,4.913,2.266h30.39
	c3.884,0,7.043-3.579,7.043-7.978V56.319c0-4.398-3.16-7.978-7.043-7.978h-49.648c-3.884,0-7.043,3.579-7.043,7.978v12.604
	C95.772,71.06,96.548,73.142,97.902,74.636L97.902,74.636z M55.387,102.149H24.996c-6.089,0-11.043-5.373-11.043-11.978V56.319
	c0-6.604,4.954-11.978,11.043-11.978h49.648c6.089,0,11.043,5.373,11.043,11.978v12.604c0,3.163-1.125,6.146-3.167,8.399
	L63.263,98.569C61.201,100.844,58.331,102.149,55.387,102.149z M24.996,48.341c-3.884,0-7.043,3.579-7.043,7.978v33.853
	c0,4.398,3.16,7.978,7.043,7.978h30.391c1.844,0,3.588-0.805,4.913-2.266l19.258-21.247c1.354-1.494,2.131-3.576,2.131-5.713V56.319
	c0-4.398-3.16-7.978-7.043-7.978H24.996z"/>
</svg>